<?xml version="1.0" encoding="utf-8"?>
<!-- Generator: Adobe Illustrator 27.1.0, SVG Export Plug-In . SVG Version: 6.00 Build 0)  -->
<svg version="1.1" id="Artwork" xmlns="http://www.w3.org/2000/svg" xmlns:xlink="http://www.w3.org/1999/xlink" x="0px" y="0px"
	 viewBox="0 0 1794.6 464.8" style="enable-background:new 0 0 1794.6 464.8;" xml:space="preserve">
<style type="text/css">
	.st0{fill:#FFFFFF;}
</style>
<g>
	<g>
		<path class="st0" d="M493.3,370h-39.8v-28.5c-5.8,10.7-26,32.5-72.1,32.5c-55.7,0-79.7-36-79.7-68.5c0-48.9,37.4-68.6,92.6-68.6
			c19.8,0,50.3,0,57.9,0v-9.9c0-20.6-7.4-43.5-47.8-43.5c-31.4,0-48.5,14.3-51.6,33.2h-41.3c2.1-31.2,30.8-67.7,91.9-67.7
			c64.5,0,89.9,31.5,89.9,81.1V370z M452.3,270c-6.5-0.1-32-0.1-52.8-0.1c-35.2,0-56,9.5-56,33.4c0,20.9,17.7,35.6,45,35.6
			c42.3,0,63.7-28.6,63.7-57V270z"/>
		<path class="st0" d="M282.3,370h-39.8v-28.5c-5.8,10.7-26,32.5-72.1,32.5c-55.7,0-79.7-36-79.7-68.5c0-48.9,37.4-68.6,92.6-68.6
			c19.8,0,50.3,0,57.9,0v-9.9c0-20.6-7.4-43.5-47.8-43.5c-31.4,0-48.5,14.3-51.6,33.2h-41.3c2.1-31.2,30.8-67.7,91.9-67.7
			c64.5,0,89.9,31.5,89.9,81.1V370z M241.3,270c-6.5-0.1-32-0.1-52.8-0.1c-35.2,0-56,9.5-56,33.4c0,20.9,17.7,35.6,45,35.6
			c42.3,0,63.7-28.6,63.7-57V270z"/>
		<rect x="598.9" y="153.2" class="st0" width="90.6" height="35.6"/>
		<rect x="598.9" y="208.3" class="st0" width="90.6" height="35.5"/>
		<path class="st0" d="M654.4,301.7l-0.2,0.7c-4.1,16.6-11.8,33.7-37.9,33.7c-24.9,0-37-13.8-37-42.1V90.6h-41.1v62.6h-37.8v35.6
			h37.8v103.4c0,49.7,30.7,81.9,78.1,81.9c40.5,0,68.8-22.4,77.7-61.5l0.1-0.6L654.4,301.7z"/>
	</g>
	<g>
		<path class="st0" d="M779.2,218l-10.3,25.9h-14.8l36.3-90.6h17.9l37.8,90.6h-15.6L819.8,218H779.2z M815.6,205.9
			c-9.7-23.7-14.6-35.6-16.6-42.1h-0.1c-2,6.7-7.6,21.8-15.6,42.1H815.6z"/>
		<path class="st0" d="M909.5,223.2c-2.9,11.7-12.4,22.4-31,22.4c-22,0-33.1-14.9-33.1-34.3c0-18.5,12-34.7,33.5-34.7
			c21.8,0,29.4,14.5,30.5,22.8h-13.7c-1.9-5.8-6.3-11.8-16.9-11.8c-12.3,0-19.3,9.6-19.3,23.4c0,13.5,6.7,23.5,19.2,23.5
			c9.2,0,14.2-4.3,17.1-11.4H909.5z"/>
		<path class="st0" d="M979.3,223.2c-2.9,11.7-12.4,22.4-31,22.4c-22,0-33.1-14.9-33.1-34.3c0-18.5,12-34.7,33.5-34.7
			c21.8,0,29.4,14.5,30.5,22.8h-13.7c-1.9-5.8-6.3-11.8-16.9-11.8c-12.3,0-19.3,9.6-19.3,23.4c0,13.5,6.7,23.5,19.2,23.5
			c9.2,0,14.2-4.3,17.1-11.4H979.3z"/>
		<path class="st0" d="M1052.4,211.1c0,18.8-11.9,34.5-34.4,34.5c-21.5,0-33.6-15.8-33.6-34.4c0-18.9,12.5-34.5,34.3-34.5
			C1040.4,176.7,1052.4,192.9,1052.4,211.1z M998.5,211.2c0,12.6,7.2,23.4,19.9,23.4c13.2,0,19.7-10.2,19.7-23.2
			c0-13.1-6.9-23.5-20-23.5C1005,187.8,998.5,198,998.5,211.2z"/>
		<path class="st0" d="M1119.5,224.8c0,6.4,0,13.4,0.1,19.1h-13.4c-0.3-1.8-0.4-5.9-0.5-10c-3.3,7-9.1,11.7-21.9,11.7
			c-13.1,0-23.6-7.1-23.6-25.9v-41.3h13.7v38.7c0,9.2,3.4,17,14.1,17c12.5,0,17.6-7.2,17.6-24.5v-31.3h13.8V224.8z"/>
		<path class="st0" d="M1131.5,194.9c0-5.6,0-11.6-0.1-16.5h13.4c0.3,2.1,0.5,7.6,0.5,10.9c2.8-5.7,9-12.6,22.3-12.6
			c14.5,0,24.2,9,24.2,26.5v40.7h-13.9v-38.5c0-9.8-3.7-17.3-14.6-17.3c-12.3,0-18,9.1-18,23v32.8h-13.8V194.9z"/>
		<path class="st0" d="M1195.6,178.4h12.2v-20.1h13.8v20.1h15.8v10.7h-15.8v35c0,6.7,1.7,9.8,8.2,9.8c1.7,0,4.1-0.1,6-0.5v10
			c-3.1,1-6.9,1.3-10.7,1.3c-13,0-17.4-6.1-17.4-18.3v-37.2h-12.2V178.4z"/>
		<path class="st0" d="M1301.2,227.8c0,6.6,0.4,14.5,0.7,16.1h-13.1c-0.5-1.9-0.8-6.2-0.9-8.7c-3.1,5.8-9.7,10.5-22.9,10.5
			c-17.4,0-24.2-10.8-24.2-20.8c0-16.1,14-21.5,33-21.5c6.3,0,11.6,0,13.9,0v-3.9c0-6.3-2.5-12.6-15-12.6c-11.2,0-13.6,5-14.8,10.3
			h-13.6c0.8-8.9,6.6-20.5,28.5-20.5c22.1,0,28.4,10.3,28.4,22.5V227.8z M1287.7,212.7c-1.9,0-6.5,0-13.4,0
			c-13.5,0-19.9,3.3-19.9,11.5c0,6.1,4.4,11,13.7,11c15.6,0,19.6-9.3,19.6-20.2V212.7z"/>
		<path class="st0" d="M1312.8,194.9c0-5.6,0-11.6-0.1-16.5h13.4c0.3,2.1,0.5,7.6,0.5,10.9c2.8-5.7,9-12.6,22.3-12.6
			c14.5,0,24.2,9,24.2,26.5v40.7h-13.9v-38.5c0-9.8-3.8-17.3-14.6-17.3c-12.3,0-18,9.1-18,23v32.8h-13.8V194.9z"/>
		<path class="st0" d="M1377,178.4h12.2v-20.1h13.8v20.1h15.8v10.7h-15.8v35c0,6.7,1.7,9.8,8.2,9.8c1.7,0,4.1-0.1,6-0.5v10
			c-3,1-6.9,1.3-10.7,1.3c-13,0-17.3-6.1-17.3-18.3v-37.2H1377V178.4z"/>
		<path class="st0" d="M1435.1,224.3c2.1,6.9,7.8,11,18,11c10.8,0,14.6-3.9,14.6-9.2c0-5.3-3.1-8.3-17.6-10.6
			c-22.1-3.6-26.1-11.1-26.1-19.5c0-9,6.9-19.4,27-19.4c21,0,27.8,11,28.6,19.5h-13.6c-0.9-3.8-3.6-9.5-15.7-9.5
			c-10.3,0-12.6,4.5-12.6,8.1c0,4.4,2.8,6.9,16.2,9.1c23.5,3.9,27.6,11.5,27.6,21.1c0,11.7-9,20.6-29.2,20.6
			c-18.4,0-29-8.2-31.1-21.3H1435.1z"/>
		<path class="st0" d="M765.8,362.6v-54.8h-11.4v-10.7h11.4v-7.8c0-14.2,6.3-23.6,21.5-23.6c3,0,6,0.2,7.8,0.8v11.1
			c-1.6-0.3-3.8-0.5-5.4-0.5c-7.7,0-10.1,3.5-10.1,12.9v7.2h14.2v10.7h-14.2v54.8H765.8z"/>
		<path class="st0" d="M862,329.8c0,18.8-11.9,34.5-34.4,34.5c-21.5,0-33.6-15.8-33.6-34.4c0-18.9,12.5-34.5,34.3-34.5
			C850,295.4,862,311.5,862,329.8z M808.2,329.9c0,12.6,7.2,23.3,19.9,23.3c13.2,0,19.7-10.2,19.7-23.2c0-13.1-6.9-23.6-20-23.6
			C814.7,306.4,808.2,316.7,808.2,329.9z"/>
		<path class="st0" d="M870.2,314.9c0-6.8,0-12.6-0.1-17.8h13.4c0.2,1.9,0.5,8.4,0.5,13.9c3.8-9.3,12.5-15.6,24.8-15.6v13.2
			c-14.5,0-24.8,7.6-24.8,26v28.1h-13.8V314.9z"/>
		<path class="st0" d="M938.2,297.1h12.2V277h13.8v20.1H980v10.7h-15.8v35c0,6.7,1.7,9.8,8.2,9.8c1.7,0,4.1-0.1,6-0.5v10
			c-3.1,1-6.9,1.2-10.7,1.2c-13,0-17.4-6-17.4-18.3v-37.2h-12.2V297.1z"/>
		<path class="st0" d="M1002.6,266.7v40.7c2.7-4.8,8.6-12.1,22.4-12.1c13.8,0,24.1,8.1,24.1,26.9v40.3h-13.8v-38.3
			c0-10.5-3.8-17.5-14.6-17.5c-12.4,0-18,9.3-18,22.6v33.2h-13.8v-95.9H1002.6z"/>
		<path class="st0" d="M1070.8,332.9c0.5,11.7,7.7,20.4,19.6,20.4c9.7,0,14.2-4.1,17-9.5h13.8c-3.3,9.6-11.9,20.5-31.3,20.5
			c-23.1,0-32.9-17.1-32.9-34.1c0-19.5,12-34.8,33-34.8c23.8,0,32.3,17.6,32.3,33.3c0,1.5,0,2.7-0.1,4.2H1070.8z M1108.1,323.6
			c-0.4-8.1-4.6-17.8-18.2-17.8c-12.2,0-17.7,7.7-18.8,17.8H1108.1z"/>
		<path class="st0" d="M1161.6,314.9c0-6.8,0-12.6-0.1-17.8h13.4c0.2,1.9,0.5,8.4,0.5,13.9c3.8-9.3,12.5-15.6,24.8-15.6v13.2
			c-14.5,0-24.8,7.6-24.8,26v28.1h-13.8V314.9z"/>
		<path class="st0" d="M1215.4,332.9c0.5,11.7,7.7,20.4,19.6,20.4c9.7,0,14.2-4.1,17-9.5h13.8c-3.3,9.6-11.9,20.5-31.3,20.5
			c-23.1,0-32.9-17.1-32.9-34.1c0-19.5,12-34.8,33-34.8c23.8,0,32.3,17.6,32.3,33.3c0,1.5,0,2.7-0.1,4.2H1215.4z M1252.7,323.6
			c-0.4-8.1-4.6-17.8-18.2-17.8c-12.2,0-17.7,7.7-18.8,17.8H1252.7z"/>
		<path class="st0" d="M1332,346.5c0,6.6,0.4,14.5,0.7,16.1h-13.1c-0.5-1.9-0.8-6.2-0.9-8.8c-3.1,5.8-9.7,10.5-22.9,10.5
			c-17.4,0-24.2-10.8-24.2-20.8c0-16.1,14-21.5,33-21.5c6.3,0,11.6,0,13.9,0v-3.9c0-6.3-2.5-12.6-15-12.6c-11.2,0-13.6,5-14.8,10.3
			h-13.6c0.8-8.9,6.6-20.5,28.5-20.5c22.1,0,28.4,10.3,28.4,22.5V346.5z M1318.6,331.4c-1.9,0-6.5,0-13.4,0
			c-13.5,0-19.9,3.3-19.9,11.5c0,6.1,4.4,11,13.7,11c15.6,0,19.6-9.3,19.6-20.2V331.4z"/>
		<path class="st0" d="M1343.5,362.6v-95.9h13.8v95.9H1343.5z"/>
		<path class="st0" d="M1405.2,297.1c9.9,34.5,13,46.4,14.3,53.5h0.1c1.6-6.8,4.7-17.7,16-53.5h13.2c11.5,37.1,14.3,47,15.4,52.6
			h0.1c1.5-6.6,4.7-18.7,14.8-52.6h13.7l-21.5,65.5h-14.6c-7.1-23.4-13.2-42.5-15.1-50.2h-0.1c-1.6,6.7-7.4,25.7-15.4,50.2h-15
			l-20.3-65.5H1405.2z"/>
		<path class="st0" d="M1560.9,329.8c0,18.8-11.9,34.5-34.4,34.5c-21.5,0-33.6-15.8-33.6-34.4c0-18.9,12.5-34.5,34.3-34.5
			C1548.9,295.4,1560.9,311.5,1560.9,329.8z M1507,329.9c0,12.6,7.2,23.3,20,23.3c13.2,0,19.7-10.2,19.7-23.2
			c0-13.1-6.9-23.6-20-23.6C1513.5,306.4,1507,316.7,1507,329.9z"/>
		<path class="st0" d="M1568.9,314.9c0-6.8,0-12.6-0.1-17.8h13.4c0.2,1.9,0.5,8.4,0.5,13.9c3.8-9.3,12.5-15.6,24.7-15.6v13.2
			c-14.5,0-24.7,7.6-24.7,26v28.1h-13.8V314.9z"/>
		<path class="st0" d="M1615.5,362.6v-95.9h13.8v95.9H1615.5z"/>
		<path class="st0" d="M1703.8,266.7v77.1c0,6.2,0,12.5,0.1,18.7h-13.4c-0.3-2.3-0.5-6.4-0.5-9.2c-3.3,5.8-9,10.9-22.4,10.9
			c-18.1,0-30.2-13.9-30.2-33.9c0-21.2,14.7-35,32-35c13.5,0,18.8,5.7,20.6,8.8v-37.5H1703.8z M1651.5,330.1
			c0,12.8,7,22.9,19.3,22.9c14.5,0,19.6-9.9,19.6-23.5c0-13.7-4.2-22.8-19.1-22.8C1658.3,306.7,1651.5,317.2,1651.5,330.1z"/>
	</g>
</g>
</svg>
